<svg version="1.1" id="Layer_1" xmlns="http://www.w3.org/2000/svg" xmlns:xlink="http://www.w3.org/1999/xlink" x="0px" y="0px" viewBox="0 0 1149.6 206.9" style="enable-background:new 0 0 1149.6 206.9;" xml:space="preserve" width="100%" height="100%" preserveAspectRatio="none"><style type="text/css"> .st0{fill-rule:evenodd;clip-rule:evenodd;fill:#01C38D;} .st1{fill-rule:evenodd;clip-rule:evenodd;fill:#191E29;} </style><g><path class="st0" d="M130.3,2.1L114,11.3v78.5l8.9,5.1V35.1l30.5,17.3l0,0l5.9,3.4l4.9-2.8v-4.7l-41.4-23.5v-8.2l7.4-4.2l42.9,24.3 v21.7L152.6,70l-0.7-0.3c-1.3-0.6-2.6-0.9-3.9-0.9c-4.9,0-8.9,4-8.9,9c0,5,4,9,8.9,9c4.5,0,8.3-3.5,8.8-8.1l0.1-0.8l20.8-11.7 l19.3,10.9v48.4l-19.3,10.9L99.2,91.9V11.3L83,2.1L31.2,31.5v26.8L7.4,71.8v59l23.8,13.5v26.9L83,200.5l16.3-9.2v-78.6l-8.9-5v59.9 l-36.5-20.7l-4.9,2.8v4.7l41.4,23.5v8.2l-7.4,4.2l-42.9-24.3v-21.7l20.6-11.6l0.7,0.3c1.3,0.6,2.6,0.9,3.9,0.9c4.9,0,8.9-4,8.9-9 c0-5-4-9-8.9-9c-4.5,0-8.3,3.5-8.8,8.1l-0.1,0.8l-20.8,11.7l-19.3-10.9V77.1l19.3-10.9l78.4,44.5v80.6l16.3,9.2l51.8-29.4v-26.8 l23.8-13.5v-59l-23.8-13.5V31.5L130.3,2.1z M40.1,36.8L83,12.4l7.4,4.2v8.2L40.1,53.3V36.8z M44.7,61l45.7-25.9v51.8L44.7,61z M122.9,115.7l45.7,25.9l-45.7,25.9V115.7z M122.9,186v-8.2l50.3-28.5v16.5l-42.9,24.3L122.9,186z"/><path class="st1" d="M804.8,146.1c6.2,0,11.3-1.9,15.3-5.8c3.9-3.9,5.9-8.6,5.9-14.2c0-5.6-2-10.4-5.9-14.2 c-3.9-3.9-9-5.8-15.3-5.8h-31.2v40H804.8z M773.6,86.1h29c5.1,0,9.3-1.7,12.7-5c3.4-3.3,5.1-7.2,5.1-11.7c0-4.4-1.7-8.3-5.1-11.7 c-3.4-3.3-7.7-5-12.7-5h-29V86.1z M830.5,95c4.2,1.9,7.9,4.4,11.1,7.6c2.8,2.7,5.4,6.2,7.7,10.7c2.3,4.5,3.5,9.9,3.5,16.2 c0,5.3-1.1,10.4-3.3,15.2c-2.2,4.8-5.4,9.1-9.5,12.7c-4.1,3.6-8.9,6.6-14.5,8.8c-5.6,2.2-11.7,3.3-18.4,3.3h-60.2V29.3h58 c6.1,0,11.7,1,16.9,3.1c5.2,2.1,9.7,4.9,13.5,8.5c3.8,3.6,6.7,7.7,8.8,12.3c2.1,4.7,3.1,9.7,3.1,15c0,4.8-0.9,8.8-2.7,12.2 c-1.8,3.4-3.7,6.2-5.8,8.2C836.2,91.3,833.4,93.3,830.5,95z M436.4,107.7l-18.8,60.8h-22.2L362.1,66.8h25.5l19.9,65.3l21.1-65.3 h15.5l21.1,65.3l19.9-65.3h25.5l-33.2,101.8h-22.2L436.4,107.7z M520.6,168.6V66.8h25.5v101.8H520.6z M965.1,117.7 c0,7.2-1.4,14-4.1,20.2c-2.7,6.3-6.4,11.8-11.1,16.5c-4.7,4.7-10,8.4-16.2,11.2c-6.1,2.7-12.7,4.1-19.6,4.1 c-6.9,0-13.5-1.4-19.6-4.1c-6.1-2.7-11.5-6.4-16.2-11.2c-4.7-4.7-8.3-10.2-11.1-16.5c-2.7-6.3-4.1-13-4.1-20.2 c0-7.2,1.4-14,4.1-20.2c2.7-6.3,6.4-11.8,11.1-16.5c4.7-4.7,10-8.4,16.2-11.2c6.1-2.7,12.7-4.1,19.6-4.1c6.9,0,13.5,1.4,19.6,4.1 c6.1,2.7,11.5,6.5,16.2,11.2c4.7,4.7,8.3,10.2,11.1,16.5C963.7,103.7,965.1,110.5,965.1,117.7z M888.6,117.7 c0,8.4,2.4,15.1,7.3,20.1c4.9,5,10.9,7.5,18.2,7.5c7.2,0,13.3-2.5,18.2-7.5c4.9-5,7.3-11.7,7.3-20.1c0-8.4-2.4-15.1-7.3-20.1 c-4.9-5-10.9-7.5-18.2-7.5c-7.2,0-13.3,2.5-18.2,7.5C891,102.6,888.6,109.3,888.6,117.7z M1026,65.7c1.2,0,2.2,0.1,3.1,0.2 c0.9,0.1,1.7,0.3,2.4,0.4c0.7,0.1,1.5,0.3,2.2,0.4v26.5c-0.7-0.1-1.6-0.3-2.4-0.4c-0.7-0.1-1.7-0.3-2.8-0.4 c-1.1-0.1-2.3-0.2-3.7-0.2c-6.2,0-11.3,2-15.2,6.1c-3.9,4.1-5.9,9.4-5.9,16v54.2h-25.5V66.8h18.8l4.4,11.1c1.8-2.2,3.9-4.2,6.4-6 c2.1-1.6,4.6-3.1,7.6-4.3C1018.7,66.3,1022.1,65.7,1026,65.7z M349.9,54.7c1.6,3.8,2.5,7.8,3,12.1h-25.8c-0.8-3.6-2.4-6.7-4.9-9.1 c-3.7-3.5-8.9-5.3-15.5-5.3s-11.8,1.6-15.5,4.9c-3.7,3.2-5.5,6.8-5.5,10.6c0,4.1,1.8,7.3,5.3,9.5c3.5,2.2,8,4.2,13.3,6 c5.3,1.8,11.1,3.6,17.4,5.5c6.3,1.9,12.1,4.5,17.4,7.7c5.3,3.2,9.8,7.5,13.3,12.7c3.5,5.2,5.3,12.1,5.3,20.5c0,5-1.2,9.9-3.7,14.6 c-2.4,4.7-5.9,9-10.3,12.7c-4.4,3.8-9.8,6.8-16.1,9.1c-6.3,2.3-13.3,3.4-20.9,3.4c-7.8,0-14.8-1.1-20.9-3.3 c-6.1-2.2-11.3-5.3-15.6-9.4c-4.3-4.1-7.6-8.8-9.9-14.4c-2.3-5.5-3.4-11.6-3.4-18.3h26.6c0,6.2,2.1,11.2,6.2,15.2 c4.1,3.9,9.8,5.9,17.1,5.9c7.8,0,13.7-1.7,17.5-5c3.8-3.3,5.8-7.2,5.8-11.6c0-4.3-1.8-7.6-5.3-10c-3.5-2.4-8-4.5-13.3-6.3 c-5.3-1.8-11.1-3.7-17.4-5.4c-6.3-1.8-12.1-4.2-17.4-7.3c-5.3-3.1-9.8-7.1-13.3-12.1c-3.5-4.9-5.3-11.5-5.3-19.6 c0-5.3,1.1-10.4,3.4-15.3c2.3-4.9,5.5-9.1,9.8-12.7c4.2-3.6,9.3-6.5,15.3-8.7c6-2.2,12.7-3.3,20.3-3.3c6.9,0,13.3,1.1,18.9,3.3 c5.7,2.2,10.6,5.3,14.7,9.3C344.5,44.7,347.7,49.4,349.9,54.7z M727.3,124c2.6,3.8,3.9,8.7,3.9,14.7c0,4.1-0.9,8.1-2.7,11.8 c-1.8,3.8-4.3,7-7.5,9.8c-3.3,2.8-7.2,5.1-11.9,6.7c-4.7,1.7-9.9,2.5-15.6,2.5c-13.3,0-23.4-3-30.3-9.1c-3.9-3.4-6.8-7.5-8.8-12.2 l21.3-11.9c0.6,3.4,2.2,6.3,4.9,8.6c2.7,2.4,6.2,3.5,10.6,3.5c4.4,0,7.9-1.1,10.5-3.4c2.6-2.3,3.9-4.8,3.9-7.6 c0-2.4-1.3-4.2-3.9-5.5c-2.6-1.3-5.8-2.5-9.6-3.6c-3.8-1.1-8-2.2-12.5-3.4c-4.5-1.2-8.7-2.9-12.5-5.2c-3.8-2.3-7.1-5.2-9.6-8.8 c-2.6-3.6-3.9-8.4-3.9-14.3c0-4.1,0.8-8.1,2.5-11.8c1.7-3.8,4.2-7,7.4-9.8c3.2-2.8,7.1-5.1,11.5-6.7c4.4-1.7,9.5-2.5,15.1-2.5 c12.3,0,21.7,3,28.3,8.9c3.4,3.1,6.1,6.6,8.1,10.5l-20.8,11.7c-0.6-2.2-2.2-4.4-4.8-6.6c-2.6-2.2-5.8-3.3-9.6-3.3 c-3.8,0-6.8,1-9,2.9c-2.1,1.9-3.2,4.3-3.2,7.1c0,2.4,1.3,4.2,3.9,5.5c2.6,1.3,5.8,2.5,9.6,3.7c3.8,1.1,8,2.3,12.5,3.5 c4.5,1.3,8.7,3.1,12.5,5.4C721.5,117.2,724.7,120.2,727.3,124z M637.5,124c2.6,3.8,3.9,8.7,3.9,14.7c0,4.1-0.9,8.1-2.7,11.8 c-1.8,3.8-4.3,7-7.5,9.8c-3.3,2.8-7.2,5.1-11.9,6.7c-4.7,1.7-9.9,2.5-15.6,2.5c-13.3,0-23.4-3-30.3-9.1c-3.9-3.4-6.8-7.5-8.8-12.2 l21.3-11.9c0.6,3.4,2.2,6.3,4.9,8.6c2.7,2.4,6.2,3.5,10.6,3.5c4.4,0,7.9-1.1,10.5-3.4c2.6-2.3,3.9-4.8,3.9-7.6 c0-2.4-1.3-4.2-3.9-5.5c-2.6-1.3-5.8-2.5-9.6-3.6c-3.8-1.1-8-2.2-12.5-3.4c-4.5-1.2-8.7-2.9-12.5-5.2c-3.8-2.3-7.1-5.2-9.6-8.8 c-2.6-3.6-3.9-8.4-3.9-14.3c0-4.1,0.8-8.1,2.5-11.8c1.7-3.8,4.2-7,7.4-9.8c3.2-2.8,7.1-5.1,11.5-6.7c4.4-1.7,9.5-2.5,15.1-2.5 c12.3,0,21.7,3,28.3,8.9c3.4,3.1,6.1,6.6,8.1,10.5l-20.8,11.7c-0.6-2.2-2.2-4.4-4.8-6.6c-2.6-2.2-5.8-3.3-9.6-3.3 c-3.8,0-6.8,1-9,2.9c-2.1,1.9-3.2,4.3-3.2,7.1c0,2.4,1.3,4.2,3.9,5.5c2.6,1.3,5.8,2.5,9.6,3.7c3.8,1.1,8,2.3,12.5,3.5 c4.5,1.3,8.7,3.1,12.5,5.4C631.7,117.2,634.9,120.2,637.5,124z M1122.4,66.8h18.8v95.1c0,13.3-4.3,24-12.7,32.1 c-8.5,8.1-20.5,12.2-36,12.2c-9.5,0-17.1-1.7-22.9-5.1c-5.8-3.4-10.5-7.2-13.8-11.5c-1.3-1.6-2.4-3.4-3.5-5.2l20.4-11.4 c1,1.9,2.4,3.6,4.2,5.1c1.6,1.2,3.7,2.3,6.2,3.3c2.5,1,5.7,1.5,9.5,1.5c7.2,0,12.9-2,17.1-5.9c4.1-3.9,6.2-9,6.2-15.2v-7.7 c-2.1,2.1-4.4,3.9-7.1,5.5c-2.4,1.5-5.2,2.8-8.4,3.9c-3.3,1.1-6.9,1.7-11.1,1.7c-6.4,0-12.4-1.3-18.1-3.8 c-5.7-2.5-10.6-6-14.9-10.4c-4.2-4.4-7.5-9.7-10-15.7c-2.4-6-3.7-12.7-3.7-19.9c0-7.2,1.2-13.9,3.7-19.9c2.4-6,5.8-11.3,10-15.7 c4.2-4.4,9.2-7.9,14.9-10.4c5.7-2.5,11.7-3.8,18.1-3.8c4.4,0,8.4,0.6,12,1.8c3.5,1.2,6.6,2.4,9.1,3.8c2.8,1.6,5.4,3.5,7.8,5.5 L1122.4,66.8z M533.3,53.5c-3.8,0-7.2-1.4-10.1-4.3c-2.9-2.9-4.3-6.2-4.3-10.1c0-3.8,1.4-7.2,4.3-10.1c2.9-2.9,6.2-4.3,10.1-4.3 c3.8,0,7.2,1.4,10.1,4.3s4.3,6.2,4.3,10.1c0,3.8-1.4,7.2-4.3,10.1C540.5,52.1,537.2,53.5,533.3,53.5z M1114.9,125.4 c1.3-3.1,2-6.4,2-10c0-3.5-0.7-6.9-2-10c-1.3-3.1-3.1-5.8-5.3-8.1c-2.2-2.3-4.8-4.1-7.8-5.4c-3-1.3-6.1-2-9.3-2 c-3.4,0-6.6,0.7-9.5,2c-3,1.3-5.5,3.1-7.8,5.4c-2.2,2.3-4,5-5.2,8.1c-1.3,3.1-1.9,6.4-1.9,10c0,3.5,0.6,6.9,1.9,10 c1.3,3.1,3,5.8,5.2,8.1c2.2,2.3,4.8,4.1,7.8,5.4c3,1.3,6.1,2,9.5,2c3.2,0,6.4-0.7,9.3-2c3-1.3,5.5-3.1,7.8-5.4 C1111.8,131.2,1113.6,128.5,1114.9,125.4z"/></g></svg>